<svg xmlns="http://www.w3.org/2000/svg" xmlns:xlink="http://www.w3.org/1999/xlink" viewBox="0,0,256,256" width="48px" height="48px" fill-rule="nonzero"><g fill="#c37a7a" fill-rule="nonzero" stroke="none" stroke-width="1" stroke-linecap="butt" stroke-linejoin="miter" stroke-miterlimit="10" stroke-dasharray="" stroke-dashoffset="0" font-family="none" font-weight="none" font-size="none" text-anchor="none" style="mix-blend-mode: normal"><path d="M34.56,256c-19.08696,0 -34.56,-15.47304 -34.56,-34.56v-186.88c0,-19.08696 15.47304,-34.56 34.56,-34.56h186.88c19.08696,0 34.56,15.47304 34.56,34.56v186.88c0,19.08696 -15.47304,34.56 -34.56,34.56z" id="shape"></path></g><g fill="none" fill-rule="nonzero" stroke="none" stroke-width="1" stroke-linecap="butt" stroke-linejoin="miter" stroke-miterlimit="10" stroke-dasharray="" stroke-dashoffset="0" font-family="none" font-weight="none" font-size="none" text-anchor="none" style="mix-blend-mode: normal"><g transform="scale(5.33333,5.33333)"><path d="M44,24h-40c0,0.338 0,1.662 0,2c0,11.028 8.972,20 20,20c11.028,0 20,-8.972 20,-20c0,-0.338 0,-1.662 0,-2z" fill="#000000"></path><circle cx="24" cy="24" r="19" fill="#ffffff"></circle><path d="M24,44c-11.028,0 -20,-8.972 -20,-20c0,-11.028 8.972,-20 20,-20c11.028,0 20,8.972 20,20c0,11.028 -8.972,20 -20,20zM24,6c-9.925,0 -18,8.075 -18,18c0,9.925 8.075,18 18,18c9.925,0 18,-8.075 18,-18c0,-9.925 -8.075,-18 -18,-18z" fill="#000000"></path><path d="M26.573,29.038h4.921l0.765,-4.993h-5.686v-2.735c0,-2.078 0.675,-3.913 2.618,-3.913h3.122v-4.363c-0.549,-0.072 -1.709,-0.234 -3.895,-0.234c-4.579,0 -7.26,2.411 -7.26,7.917v3.329h-4.696v4.993h4.696v13.728c0.935,0.134 1.87,0.233 2.842,0.233c0.873,0 1.727,-0.081 2.573,-0.198z" fill="#000000"></path></g></g></svg>